0
SECTION
2
HEADER
9
$INSUNITS
70
4
9
$ACADVER
1
AC1014
9
$HANDSEED
5
FFFF
0
ENDSEC
0
SECTION
2
TABLES
0
TABLE
2
VPORT
5
8
100
AcDbSymbolTable
0
ENDTAB
0
TABLE
2
LTYPE
5
5
100
AcDbSymbolTable
0
LTYPE
5
14
100
AcDbSymbolTableRecord
100
AcDbLinetypeTableRecord
2
BYBLOCK
70
0
0
LTYPE
5
15
100
AcDbSymbolTableRecord
100
AcDbLinetypeTableRecord
2
BYLAYER
70
0
0
LTYPE
5
16
100
AcDbSymbolTableRecord
100
AcDbLinetypeTableRecord
2
DASHED
70
0
3
Dashed __ __ __ __ __ __ __ __ __ __ __ __ __ _
72
65
73
2
40
0.75
49
0.5
74
0
49
-0.25
74
0
0
ENDTAB
0
TABLE
2
LAYER
5
2
100
AcDbSymbolTable
70
2
0
LAYER
5
50
100
AcDbSymbolTableRecord
100
AcDbLayerTableRecord
2
0
70
0
62
7
6
CONTINUOUS
0
ENDTAB
0
TABLE
2
STYLE
5
3
100
AcDbSymbolTable
70
1
0
STYLE
5
11
100
AcDbSymbolTableRecord
100
AcDbTextStyleTableRecord
2
STANDARD
70
0
0
ENDTAB
0
TABLE
2
VIEW
5
6
100
AcDbSymbolTable
70
0
0
ENDTAB
0
TABLE
2
UCS
5
7
100
AcDbSymbolTable
70
0
0
ENDTAB
0
TABLE
2
APPID
5
9
100
AcDbSymbolTable
70
2
0
APPID
5
12
100
AcDbSymbolTableRecord
100
AcDbRegAppTableRecord
2
ACAD
70
0
0
ENDTAB
0
TABLE
2
DIMSTYLE
5
A
100
AcDbSymbolTable
70
1
0
ENDTAB
0
TABLE
2
BLOCK_RECORD
5
1
100
AcDbSymbolTable
70
1
0
BLOCK_RECORD
5
1F
100
AcDbSymbolTableRecord
100
AcDbBlockTableRecord
2
*MODEL_SPACE
0
BLOCK_RECORD
5
1B
100
AcDbSymbolTableRecord
100
AcDbBlockTableRecord
2
*PAPER_SPACE
0
ENDTAB
0
ENDSEC
0
SECTION
2
BLOCKS
0
BLOCK
5
20
100
AcDbEntity
100
AcDbBlockBegin
2
*MODEL_SPACE
0
ENDBLK
5
21
100
AcDbEntity
100
AcDbBlockEnd
0
BLOCK
5
1C
100
AcDbEntity
100
AcDbBlockBegin
2
*PAPER_SPACE
0
ENDBLK
5
1D
100
AcDbEntity
100
AcDbBlockEnd
0
ENDSEC
0
SECTION
2
ENTITIES
0
ARC
5
100
100
AcDbEntity
8
0
100
AcDbCircle
10
-168.07353561239603
20
-21.732835391351696
30
0
40
1.4999999999999858
210
0
220
-0
230
1
100
AcDbArc
50
89.999999997440085
51
180
0
LINE
5
101
100
AcDbEntity
8
0
100
AcDbLine
10
-169.573535612396
20
-21.732835391284308
30
0
11
-169.57353561666099
21
-116.68083539128502
31
0
0
ARC
5
102
100
AcDbEntity
8
0
100
AcDbCircle
10
-168.07353561666102
20
-116.68083539135203
30
0
40
1.4999999999999858
210
0
220
0
230
1
100
AcDbArc
50
180
51
269.99999999744222
0
LINE
5
103
100
AcDbEntity
8
0
100
AcDbLine
10
-168.07353561672798
20
-118.18083539135202
30
0
11
-156.30220902353699
21
-118.18083539188001
31
0
0
ARC
5
104
100
AcDbEntity
8
0
100
AcDbCircle
10
-156.30220902358101
20
-119.18095548984701
30
0
40
1.0001200979669265
210
0
220
-0
230
1
100
AcDbArc
50
16.260204705717811
51
89.999999997477843
0
LINE
5
105
100
AcDbEntity
8
0
100
AcDbLine
10
-155.34209372952009
20
-118.90092186245974
30
0
11
-154.45253561689799
21
-121.95083539196099
31
0
0
ARC
5
106
100
AcDbEntity
8
0
100
AcDbCircle
10
-151.57253561686099
20
-121.11083539209103
30
0
40
2.9999999999991318
210
0
220
0
230
1
100
AcDbArc
50
196.26020470572985
51
343.73979528908336
0
LINE
5
107
100
AcDbEntity
8
0
100
AcDbLine
10
-148.69253561689916
20
-121.95083539222196
30
0
11
-147.80297750399799
21
-118.90092186279202
31
0
0
ARC
5
108
100
AcDbEntity
8
0
100
AcDbCircle
10
-146.84286220997103
20
-119.18095549026401
30
0
40
1.0001200979588631
210
0
220
-0
230
1
100
AcDbArc
50
89.999999997420858
51
163.7397952890777
0
LINE
5
109
100
AcDbEntity
8
0
100
AcDbLine
10
-146.84286220992601
20
-118.18083539230514
30
0
11
-77.464034269944406
21
-118.18083539542002
31
0
0
ARC
5
110
100
AcDbEntity
8
0
100
AcDbCircle
10
-77.464034269899798
20
-117.18083539541797
30
0
40
1.0000000000020393
210
0
220
0
230
1
100
AcDbArc
50
269.99999999744415
51
281.99999999741914
0
LINE
5
111
100
AcDbEntity
8
0
100
AcDbLine
10
-77.256122579125673
20
-118.15898299616315
30
0
11
-45.016770128526097
21
-111.306297090309
31
0
0
SPLINE
5
112
100
AcDbEntity
8
0
100
AcDbSpline
70
0
71
3
72
8
73
4
74
0
42
0.000000001
43
0.0000000001
44
0.0000000001
40
-1
40
-1
40
-1
40
-1
40
0
40
0
40
0
40
0
10
-45.016770128526097
20
-111.306297090309
30
0
10
-44.582037861530203
20
-111.21389189440902
30
0
10
-44.138486037276898
20
-111.41949861823602
30
0
10
-43.928052014455403
20
-111.810968139701
30
0
0
LINE
5
113
100
AcDbEntity
8
0
100
AcDbLine
10
-43.928052014455403
20
-111.810968139701
30
0
11
-42.389253222566801
21
-114.67358901541502
31
0
0
ARC
5
114
100
AcDbEntity
8
0
100
AcDbCircle
10
-39.7468339526758
20
-113.253159361363
30
0
40
3.0000000000002696
210
0
220
0
230
1
100
AcDbArc
50
208.26020470571743
51
355.73979528910729
0
LINE
5
115
100
AcDbEntity
8
0
100
AcDbLine
10
-36.755123042285554
20
-113.47601767655901
30
0
11
-36.513693200823099
21
-110.234997523636
31
0
0
SPLINE
5
116
100
AcDbEntity
8
0
100
AcDbSpline
70
0
71
3
72
8
73
4
74
0
42
0.000000001
43
0.0000000001
44
0.0000000001
40
-1
40
-1
40
-1
40
-1
40
0
40
0
40
0
40
0
10
-36.513693200823099
20
-110.234997523636
30
0
10
-36.480677154126099
20
-109.79178109246801
30
0
10
-36.159100188462602
20
-109.42354122385602
30
0
10
-35.724367921466808
20
-109.331136027957
30
0
0
LINE
5
117
100
AcDbEntity
8
0
100
AcDbLine
10
-35.724367921466808
20
-109.331136027957
30
0
11
4.4708865016183985
21
-100.787370954221
31
0
0
ARC
5
118
100
AcDbEntity
8
0
100
AcDbCircle
10
4.6787981923955018
20
-101.76551855498218
30
0
40
1.000000000018062
210
0
220
-0
230
1
100
AcDbArc
50
77.999999997924476
51
101.99999999739543
0
LINE
5
119
100
AcDbEntity
8
0
100
AcDbLine
10
4.8867098832524487
20
-100.78737095423824
30
0
11
37.175999733494798
21
-107.650671385089
31
0
0
SPLINE
5
120
100
AcDbEntity
8
0
100
AcDbSpline
70
0
71
3
72
8
73
4
74
0
42
0.000000001
43
0.0000000001
44
0.0000000001
40
-1
40
-1
40
-1
40
-1
40
0
40
0
40
0
40
0
10
37.175999733494798
20
-107.650671385089
30
0
10
37.610732000482997
20
-107.74307658102801
30
0
10
37.932308966113197
20
-108.11131644966601
30
0
10
37.965325012769497
20
-108.55453288083801
30
0
0
LINE
5
121
100
AcDbEntity
8
0
100
AcDbLine
10
37.965325012769497
20
-108.554532880838
30
0
11
38.206754853940303
21
-111.79555303378301
31
0
0
ARC
5
122
100
AcDbEntity
8
0
100
AcDbCircle
10
41.198465764350601
20
-111.57269471885598
30
0
40
3.0000000000000244
210
0
220
0
230
1
100
AcDbArc
50
184.26020470574124
51
331.73979528911832
0
LINE
5
123
100
AcDbEntity
8
0
100
AcDbLine
10
43.840885034113342
20
-112.99312437314605
30
0
11
45.3796838262612
21
-110.13050349756901
31
0
0
ARC
5
124
100
AcDbEntity
8
0
100
AcDbCircle
10
46.260490249515406
20
-110.60398004899902
30
0
40
1.0000000000000078
210
0
220
-0
230
1
100
AcDbArc
50
77.999999997421256
51
151.73979528911767
0
LINE
5
125
100
AcDbEntity
8
0
100
AcDbLine
10
46.468401940377191
20
-109.62583244827456
30
0
11
86.613718962435712
21
-118.15898300352102
31
0
0
ARC
5
126
100
AcDbEntity
8
0
100
AcDbCircle
10
86.821630653297234
20
-117.18083540279747
30
0
40
0.9999999999990663
210
0
220
0
230
1
100
AcDbArc
50
257.99999999742516
51
269.99999999743682
0
LINE
5
127
100
AcDbEntity
8
0
100
AcDbLine
10
86.821630653252498
20
-118.18083540279601
30
0
11
146.476540976465
21
-118.180835405474
31
0
0
ARC
5
128
100
AcDbEntity
8
0
100
AcDbCircle
10
146.47654097642001
20
-119.18095550344
30
0
40
1.0001200979652061
210
0
220
-0
230
1
100
AcDbArc
50
16.260204705717701
51
89.999999997422478
0
LINE
5
129
100
AcDbEntity
8
0
100
AcDbLine
10
147.43665627047929
20
-118.90092187605322
30
0
11
148.32621438310301
21
-121.950835405557
31
0
0
ARC
5
130
100
AcDbEntity
8
0
100
AcDbCircle
10
151.206214383141
20
-121.110835405687
30
0
40
3.0000000000000799
210
0
220
0
230
1
100
AcDbArc
50
196.26020470572533
51
343.73979528914333
0
LINE
5
131
100
AcDbEntity
8
0
100
AcDbLine
10
154.08621438310371
20
-121.95083540581491
30
0
11
154.975772495999
21
-118.900921876392
31
0
0
ARC
5
132
100
AcDbEntity
8
0
100
AcDbCircle
10
155.935887790034
20
-119.18095550386499
30
0
40
1.0001200979662705
210
0
220
-0
230
1
100
AcDbArc
50
89.999999997422478
51
163.73979528915203
0
LINE
5
133
100
AcDbEntity
8
0
100
AcDbLine
10
155.93588779007899
20
-118.18083540589873
30
0
11
167.72521438327101
21
-118.18083540642802
31
0
0
ARC
5
134
100
AcDbEntity
8
0
100
AcDbCircle
10
167.72521438333803
20
-116.68083540642803
30
0
40
1.4999999999999858
210
0
220
0
230
1
100
AcDbArc
50
269.99999999744006
51
360
0
LINE
5
135
100
AcDbEntity
8
0
100
AcDbLine
10
169.22521438333803
20
-116.68083540649502
30
0
11
169.22521438698499
21
-35.460835406494994
31
0
0
ARC
5
136
100
AcDbEntity
8
0
100
AcDbCircle
10
168.22521438698499
20
-35.460835406450144
30
0
40
1.0000000000000142
210
0
220
0
230
1
100
AcDbArc
50
0
51
89.999999997475911
0
LINE
5
137
100
AcDbEntity
8
0
100
AcDbLine
10
168.22521438702904
20
-34.46083540645013
30
0
11
164.96621438703099
21
-34.460835406305613
31
0
0
ARC
5
138
100
AcDbEntity
8
0
100
AcDbCircle
10
164.96621438707504
20
-33.460835406305605
30
0
40
1.0000000000000142
210
0
220
0
230
1
100
AcDbArc
50
180
51
269.99999999747592
0
LINE
5
139
100
AcDbEntity
8
0
100
AcDbLine
10
163.96621438707501
20
-33.460835406260607
30
0
11
163.96621438762503
21
-21.231835406258611
31
0
0
ARC
5
140
100
AcDbEntity
8
0
100
AcDbCircle
10
162.966214387625
20
-21.231835406213612
30
0
40
1.0000000000000142
210
0
220
0
230
1
100
AcDbArc
50
0
51
89.999999997420545
0
LINE
5
141
100
AcDbEntity
8
0
100
AcDbLine
10
162.96621438767002
20
-20.231835406213598
30
0
11
155.96242946114199
21
-20.231835405900206
31
0
0
ARC
5
142
100
AcDbEntity
8
0
100
AcDbCircle
10
155.96242946118701
20
-19.231715307936309
30
0
40
1.0001200979639167
210
0
220
0
230
1
100
AcDbArc
50
196.26020470574409
51
269.99999999742084
0
LINE
5
143
100
AcDbEntity
8
0
100
AcDbLine
10
155.0023141671291
20
-19.511748935323176
30
0
11
154.08621438784201
21
-16.370835405817207
31
0
0
ARC
5
144
100
AcDbEntity
8
0
100
AcDbCircle
10
151.20621438780501
20
-17.2108354056883
30
0
40
2.9999999999994293
210
0
220
-0
230
1
100
AcDbArc
50
16.26020470575062
51
163.7397952891067
0
LINE
5
145
100
AcDbEntity
8
0
100
AcDbLine
10
148.32621438784287
20
-16.370835405558552
30
0
11
147.41011460827303
21
-19.511748934982005
31
0
0
ARC
5
146
100
AcDbEntity
8
0
100
AcDbCircle
10
146.44999931423899
20
-19.231715307508406
30
0
40
1.0001200979651692
210
0
220
0
230
1
100
AcDbArc
50
269.99999999747951
51
343.73979528910286
0
LINE
5
147
100
AcDbEntity
8
0
100
AcDbLine
10
146.449999314195
20
-20.231835405473575
30
0
11
94.712168083068093
21
-20.231835403150406
31
0
0
ARC
5
148
100
AcDbEntity
8
0
100
AcDbCircle
10
94.712168083112999
20
-19.231835403150406
30
0
40
1.0000000000000007
210
0
220
0
230
1
100
AcDbArc
50
257.99999999743073
51
269.99999999742704
0
LINE
5
149
100
AcDbEntity
8
0
100
AcDbLine
10
94.504256392251378
20
-20.209983003874889
30
0
11
52.097358113732
21
-11.196118512711809
31
0
0
ARC
5
150
100
AcDbEntity
8
0
100
AcDbCircle
10
52.305294774365201
20
-10.217853438448309
30
0
40
1.0001200979678222
210
0
220
0
230
1
100
AcDbArc
50
184.26020470575162
51
257.9999999974288
0
LINE
5
151
100
AcDbEntity
8
0
100
AcDbLine
10
51.307938038094903
20
-10.292148465034408
30
0
11
51.061407718414102
21
-6.9826580949924368
31
0
0
ARC
5
152
100
AcDbEntity
8
0
100
AcDbCircle
10
48.069696808003812
20
-7.2055164099198779
30
0
40
3.0000000000000466
210
0
220
-0
230
1
100
AcDbArc
50
4.2602047057492101
51
151.7397952891148
0
LINE
5
153
100
AcDbEntity
8
0
100
AcDbLine
10
45.427277538241171
20
-5.7850867556296617
30
0
11
43.855969880861501
21
-8.7081837355082765
31
0
0
ARC
5
154
100
AcDbEntity
8
0
100
AcDbCircle
10
42.975057674545909
20
-8.2346503205065975
30
0
40
1.0001200979677696
210
0
220
0
230
1
100
AcDbArc
50
257.99999999742306
51
331.73979528911366
0
LINE
5
155
100
AcDbEntity
8
0
100
AcDbLine
10
42.767121013912607
20
-9.2129153947700786
30
0
11
0.28374554807684582
21
-0.1827951756211732
31
0
0
ARC
5
156
100
AcDbEntity
8
0
100
AcDbCircle
10
0.075833857215159395
20
-1.1609427763456472
30
0
40
1.0000000000000053
210
0
220
-0
230
1
100
AcDbArc
50
77.999999997426997
51
101.99999999742752
0
LINE
5
157
100
AcDbEntity
8
0
100
AcDbLine
10
-0.13207783355868297
20
-0.18279517560250605
30
0
11
-42.632719418624198
21
-9.2165854176995676
31
0
0
ARC
5
158
100
AcDbEntity
8
0
100
AcDbCircle
10
-42.840656079169001
20
-8.2383203434199963
30
0
40
1.0001200979651195
210
0
220
0
230
1
100
AcDbArc
50
208.2602047057301
51
281.99999999742613
0
LINE
5
159
100
AcDbEntity
8
0
100
AcDbLine
10
-43.721568285524917
20
-8.7118537583411673
30
0
11
-45.294848761606509
21
-5.7850867515557773
31
0
0
ARC
5
160
100
AcDbEntity
8
0
100
AcDbCircle
10
-47.937268031496892
20
-7.2055164056082246
30
0
40
2.9999999999999325
210
0
220
-0
230
1
100
AcDbArc
50
28.260204705730299
51
175.73979528910743
0
LINE
5
161
100
AcDbEntity
8
0
100
AcDbLine
10
-50.928978941887131
20
-6.9826580904122242
30
0
11
-51.175818787303406
21
-10.296303614481408
31
0
0
ARC
5
162
100
AcDbEntity
8
0
100
AcDbCircle
10
-52.173175523558101
20
-10.222008587806407
30
0
40
1.0001200979588394
210
-0
220
0
230
1
100
AcDbArc
50
281.9999999974259
51
355.73979528910297
0
LINE
5
163
100
AcDbEntity
8
0
100
AcDbLine
10
-51.965238863014605
20
-11.200273662079844
30
0
11
-94.357293309647105
21
-20.210982995395106
31
0
0
ARC
5
164
100
AcDbEntity
8
0
100
AcDbCircle
10
-94.565205000421017
20
-19.232835394652007
30
0
40
0.99999999999999867
210
0
220
0
230
1
100
AcDbArc
50
269.99999999742789
51
281.99999999743187
0
LINE
5
165
100
AcDbEntity
8
0
100
AcDbLine
10
-94.565205000465909
20
-20.232835394652007
30
0
11
-146.81602887219199
21
-20.232835392306406
31
0
0
ARC
5
166
100
AcDbEntity
8
0
100
AcDbCircle
10
-146.816028872147
20
-19.232715294346207
30
0
40
1.0001200979602143
210
0
220
0
230
1
100
AcDbArc
50
196.26020470575421
51
269.99999999742249
0
LINE
5
167
100
AcDbEntity
8
0
100
AcDbLine
10
-147.77614416620133
20
-19.512748921732214
30
0
11
-148.692535612157
21
-16.370835392221508
31
0
0
ARC
5
168
100
AcDbEntity
8
0
100
AcDbCircle
10
-151.572535612195
20
-17.210835392093507
30
0
40
3.0000000000006386
210
0
220
-0
230
1
100
AcDbArc
50
16.260204705761911
51
163.73979528910695
0
LINE
5
169
100
AcDbEntity
8
0
100
AcDbLine
10
-154.45253561215713
20
-16.370835391963773
30
0
11
-155.36892705839199
21
-19.512748921387608
31
0
0
ARC
5
170
100
AcDbEntity
8
0
100
AcDbCircle
10
-156.329042352426
20
-19.232715293914207
30
0
40
1.0001200979648517
210
0
220
0
230
1
100
AcDbArc
50
269.99999999742249
51
343.73979528911343
0
LINE
5
171
100
AcDbEntity
8
0
100
AcDbLine
10
-156.32904235247099
20
-20.23283539187906
30
0
11
-168.07353561232901
21
-20.23283539135171
31
0
0
LWPOLYLINE
5
172
100
AcDbEntity
8
0
100
AcDbPolyline
90
8
70
1
43
0.0
10
-158.35938561250001
20
-36.442835391789416
10
-158.35938561250006
20
-23.442835391789011
42
-0.4142135623730222
10
-157.85938561250001
20
-22.942835391789028
10
-144.85938561250003
20
-22.942835391789075
42
-0.41421356237317047
10
-144.35938561249998
20
-23.44283539178921
10
-144.35938561249998
20
-36.442835391789416
42
-0.41421356237301438
10
-144.85938561250003
20
-36.942835391789345
10
-157.85938561250001
20
-36.942835391789423
42
-0.41421356237309764
0
CIRCLE
5
173
100
AcDbEntity
8
0
100
AcDbCircle
10
-151.572535612195
20
-17.210835392093507
30
0
40
1.6000000000000003
210
0
220
0
230
1
0
CIRCLE
5
174
100
AcDbEntity
8
0
100
AcDbCircle
10
48.069696808003812
20
-7.2055164099198779
30
0
40
1.6000000000000003
210
0
220
0
230
1
0
CIRCLE
5
175
100
AcDbEntity
8
0
100
AcDbCircle
10
-47.937268031496892
20
-7.2055164056082246
30
0
40
1.6000000000000003
210
0
220
0
230
1
0
CIRCLE
5
176
100
AcDbEntity
8
0
100
AcDbCircle
10
41.198465764350601
20
-111.57269471885598
30
0
40
1.6000000000000003
210
0
220
0
230
1
0
CIRCLE
5
177
100
AcDbEntity
8
0
100
AcDbCircle
10
-39.7468339526758
20
-113.253159361363
30
0
40
1.6000000000000003
210
0
220
0
230
1
0
CIRCLE
5
178
100
AcDbEntity
8
0
100
AcDbCircle
10
151.206214383141
20
-121.110835405687
30
0
40
1.5999999999999803
210
0
220
0
230
1
0
CIRCLE
5
179
100
AcDbEntity
8
0
100
AcDbCircle
10
-151.57253561686099
20
-121.11083539209103
30
0
40
1.6000000000000003
210
0
220
0
230
1
0
LWPOLYLINE
5
180
100
AcDbEntity
8
0
100
AcDbPolyline
90
8
70
1
43
0.0
10
-113.91378561250001
20
-42.040834391789105
10
-100.91378561250004
20
-42.040834391789076
42
-0.41421356237311063
10
-100.41378561249998
20
-42.540834391789105
10
-100.41378561249999
20
-55.540834391789005
42
-0.41421356237307422
10
-100.91378561250002
20
-56.040834391789041
10
-113.91378561250001
20
-56.040834391789204
42
-0.41421356237307944
10
-114.41378561250008
20
-55.540834391789112
10
-114.41378561250008
20
-42.540834391789105
42
-0.4142135623730222
0
LWPOLYLINE
5
181
100
AcDbEntity
8
0
100
AcDbPolyline
90
8
70
1
43
0.0
10
78.3736378188229
20
-79.522375196116812
10
91.089556628240899
20
-82.225227177318772
42
-0.41421356237314372
10
91.474674583172302
20
-82.818256823111909
10
88.771822601970243
20
-95.53417563252998
42
-0.41421356237304846
10
88.178792956177205
20
-95.919293587461368
10
75.46287414675912
20
-93.216441606259224
42
-0.41421356237305978
10
75.077756191827746
20
-92.623411960466214
10
77.780608173029918
20
-79.907493151048129
42
-0.41421356237304585
0
LWPOLYLINE
5
182
100
AcDbEntity
8
0
100
AcDbPolyline
90
8
70
1
43
0.0
10
-129.2837856125
20
-80.140834391789184
42
0.4142135623731783
10
-129.78378561249991
20
-80.640834391789213
10
-129.7837856125
20
-93.640834391789298
42
0.41421356237309503
10
-129.2837856125
20
-94.140834391789298
10
-116.28378561250001
20
-94.140834391789184
42
0.41421356237312623
10
-115.7837856125
20
-93.640834391789198
10
-115.78378561250011
20
-80.640834391789099
42
0.41421356237307422
10
-116.28378561250001
20
-80.140834391789198
0
LWPOLYLINE
5
183
100
AcDbEntity
8
0
100
AcDbPolyline
90
8
70
1
43
0.0
10
27.826213818822893
20
-88.250940196116758
42
0.41421356237302054
10
27.233184173029876
20
-88.636058151048118
10
24.530332191827817
20
-101.35197696046603
42
0.41421356237310636
10
24.915450146759103
20
-101.945006606259
10
37.631368956177148
20
-104.64785858746124
42
0.41421356237300644
10
38.2243986019703
20
-104.26274063253001
10
40.927250583172324
20
-91.546821823111898
42
0.41421356237310919
10
40.542132628240999
20
-90.953792177318803
0
LWPOLYLINE
5
184
100
AcDbEntity
8
0
100
AcDbPolyline
90
8
70
1
43
0.0
10
72.140962583172254
20
-59.227539823111819
42
0.41421356237309503
10
71.755844628240808
20
-58.634510177318766
10
59.039925818822809
20
-55.931658196116594
42
0.41421356237316981
10
58.446896173029607
20
-56.316776151048018
10
55.744044191827562
20
-69.032694960466102
42
0.41421356237309986
10
56.129162146759001
20
-69.625724606259112
10
68.845080956177014
20
-72.328576587461257
42
0.41421356237310042
10
69.438110601970195
20
-71.943458632529911
0
LWPOLYLINE
5
185
100
AcDbEntity
8
0
100
AcDbPolyline
90
8
70
1
43
0.0
10
72.323637818822888
20
-39.28237519611681
42
0.41421356237308743
10
71.730608173029808
20
-39.667493151048113
10
69.027756191827706
20
-52.383411960466205
42
0.41421356237307577
10
69.412874146758995
20
-52.976441606259314
10
82.128792956177094
20
-55.679293587461338
42
0.41421356237315504
10
82.721822601970203
20
-55.294175632529914
10
85.424674583172347
20
-42.578256823111921
42
0.41421356237315182
10
85.039556628240902
20
-41.985227177318805
0
LWPOLYLINE
5
186
100
AcDbEntity
8
0
100
AcDbPolyline
90
8
70
1
43
0.0
10
162.36621438750004
20
-82.780835391789097
10
162.36621438750007
20
-95.780835391788997
42
-0.4142135623730846
10
161.86621438750001
20
-96.280835391789012
10
148.86621438750001
20
-96.280835391789012
42
-0.41421356237307422
10
148.36621438750001
20
-95.780835391788997
10
148.36621438750001
20
-82.780835391789097
42
-0.41421356237312623
10
148.86621438750001
20
-82.280835391789111
10
161.86621438750001
20
-82.280835391789111
42
-0.4142135623730846
0
LWPOLYLINE
5
187
100
AcDbEntity
8
0
100
AcDbPolyline
90
8
70
1
43
0.0
10
-158.63574592986504
20
-61.591999327143306
10
-152.63574592986501
20
-61.591999327143526
42
-0.41421356237310025
10
-152.13574592986504
20
-62.091999327143512
10
-152.13574592986498
20
-77.091999330764111
42
-0.41424881002807329
10
-152.63580610062601
20
-77.591999327143441
10
-158.63574592986504
20
-77.5919993271431
42
-0.41421356237315227
10
-159.13574592986501
20
-77.091999327143014
10
-159.13574592986515
20
-62.091999327143313
42
-0.41421356237304818
0
LWPOLYLINE
5
188
100
AcDbEntity
8
0
100
AcDbPolyline
90
8
70
1
43
0.0
10
-54.725680827672107
20
-51.333458632036113
10
-57.428532807731607
20
-38.617539822375313
42
-0.41421356237315937
10
-57.043414852747006
20
-38.024510176616772
10
-44.327496043086292
20
-35.32165819655728
42
-0.41421356237319507
10
-43.73446639732763
20
-35.706776151541902
10
-41.031614417268173
20
-48.422694961202808
42
-0.41421356237304124
10
-41.416732372252824
20
-49.015724606961335
10
-54.132651181913488
20
-51.718576587020799
42
-0.41421356237314877
0
LWPOLYLINE
5
189
100
AcDbEntity
8
0
100
AcDbPolyline
90
8
70
1
43
0.0
10
-51.465680827672401
20
-89.593458632036103
10
-54.168532807732028
20
-76.877539822375311
42
-0.41421356237329016
10
-53.783414852747001
20
-76.28451017661672
10
-41.067496043086209
20
-73.581658196557214
42
-0.4142135623730645
10
-40.474466397327696
20
-73.966776151541907
10
-37.771614417268069
20
-86.682694961202813
42
-0.41421356237321311
10
-38.15673237225289
20
-87.27572460696129
10
-50.872651181913788
20
-89.978576587020768
42
-0.41421356237316292
0
LWPOLYLINE
5
190
100
AcDbEntity
8
0
100
AcDbPolyline
90
31
70
1
43
0.0
10
65.10925425971638
20
-19.295019821060006
42
0.41421356237303508
10
64.72413630478502
20
-18.70199017526695
10
62.501184848576401
20
-18.229487256871643
42
0.035602128537824483
10
62.432852311573903
20
-18.209792528558506
10
56.997274098186786
20
-17.054424712582204
42
0.4108629894323671
10
56.610997628240803
20
-16.467003177318809
10
54.384873037623798
20
-15.99382578838371
42
0.033995618664804959
10
54.319556628227701
20
-15.975227177320306
10
41.603637818809688
20
-13.272375196118331
42
0.4142135623731581
10
41.010608173016607
20
-13.657493151049707
10
41.0097883915804
20
-13.661349919476507
10
39.220111932582824
20
-13.280942444766161
42
0.035602128555603595
10
39.151779395546797
20
-13.261247716441806
10
33.282893791205098
20
-12.013777571286928
42
0.41421356237362722
10
32.6898641454124
20
-12.398895526220011
10
29.571188782492705
20
-27.071109537078311
42
0.41421356237680879
10
29.956306737420505
20
-27.66413918287261
10
32.179387134134117
20
-28.136669508421356
42
0.035602128519968197
10
32.247719671103603
20
-28.156364236721512
10
38.115963814747005
20
-29.403698035209391
42
0.41459776833894968
10
38.709634831828609
20
-29.018716847624212
10
39.126278084403197
20
-27.058564457083811
10
40.918998737363779
20
-27.439618995196145
42
0.033995618664363882
10
40.984315146759201
20
-27.458217606259211
10
53.266894488756201
20
-30.06896044020991
10
52.852261614655738
20
-32.019654743645091
42
0.41458561145392558
10
53.23800081998391
20
-32.612816027999017
10
55.46032817448981
20
-33.085186289483694
42
0.03593196140125441
10
55.529305107354801
20
-33.105017988370108
10
61.397549250998004
20
-34.352351786859209
42
0.41421356237315354
10
61.990578896791106
20
-33.967233831927814
0
LWPOLYLINE
5
191
100
AcDbEntity
8
0
100
AcDbPolyline
90
8
70
1
43
0.0
10
-40.509702852747303
20
-92.933792176616805
10
-27.793784043086305
20
-90.230940196557214
42
-0.41421356237316898
10
-27.200754397327685
20
-90.616058151541921
10
-24.497902417268335
20
-103.33197696120301
42
-0.41421356237299534
10
-24.883020372252787
20
-103.92500660696157
10
-37.598939181913799
20
-106.62785858702054
42
-0.41421356237300139
10
-38.191968827672206
20
-106.242740632036
10
-40.894820807731868
20
-93.526821822375311
42
-0.41421356237298124
0
LWPOLYLINE
5
192
100
AcDbEntity
8
0
100
AcDbPolyline
90
8
70
1
43
0.0
10
-140.10378461249999
20
-94.140834391789014
10
-153.10378461249999
20
-94.140834391789014
42
-0.41421356237307422
10
-153.60378461250002
20
-93.640834391788999
10
-153.60378461250002
20
-80.640834391789099
42
-0.41421356237313667
10
-153.10378461249999
20
-80.140834391789099
10
-140.10378461249999
20
-80.140834391789156
42
-0.41421356237310542
10
-139.60378461249996
20
-80.640834391789213
10
-139.60378461249988
20
-93.640834391788999
42
-0.41421356237301177
0
LWPOLYLINE
5
193
100
AcDbEntity
8
0
100
AcDbPolyline
90
8
70
1
43
0.0
10
119.81115602734901
20
-55.537088987512703
42
0.41421356237310025
10
120.311156027349
20
-55.037088987512711
10
120.311156027349
20
-40.037073817176505
42
0.41193380634347609
10
119.81505090938199
20
-39.537088987512718
10
113.81115602734901
20
-39.537088987512689
42
0.4142135623730378
10
113.311156027349
20
-40.037088987512604
10
113.31115602734899
20
-55.037088987512711
42
0.41421356237308982
10
113.81115602734901
20
-55.537088987512718
0
LWPOLYLINE
5
194
100
AcDbEntity
8
0
100
AcDbPolyline
90
8
70
1
43
0.0
10
-87.223784612500097
20
-75.090834391789002
42
0.4142135623730846
10
-86.723784612500125
20
-74.590834391789016
10
-86.723784612500083
20
-61.590834391789009
42
0.41421356237301177
10
-87.223784612500097
20
-61.090834391789109
10
-100.2237846125
20
-61.090834391789066
42
0.41421356237308982
10
-100.7237846125
20
-61.590834391789009
10
-100.72378461250004
20
-74.590834391789116
42
0.41421356237310542
10
-100.2237846125
20
-75.090834391789116
0
LWPOLYLINE
5
195
100
AcDbEntity
8
0
100
AcDbPolyline
90
8
70
1
43
0.0
10
90.774674583172242
20
-63.1882568231119
42
0.41421356237308488
10
90.389556628240911
20
-62.595227177318769
10
77.673637818822812
20
-59.89237519611666
42
0.41421356237308637
10
77.080608173029802
20
-60.277493151048105
10
74.377756191827686
20
-72.993411960466119
42
0.41421356237314272
10
74.762874146759103
20
-73.586441606259214
10
87.478792956177102
20
-76.289293587461287
42
0.41421356237303103
10
88.071822601970212
20
-75.904175632529913
0
LWPOLYLINE
5
196
100
AcDbEntity
8
0
100
AcDbPolyline
90
8
70
1
43
0.0
10
23.403771956177199
20
-23.721358587461307
10
8.3728741467589991
20
-20.526441606259269
42
-0.41421356237311668
10
7.9877561918276205
20
-19.933411960466113
10
10.690608173029744
20
-7.217493151048016
42
-0.41421356237308216
10
11.283637818822703
20
-6.8323751961166774
10
26.31453562824089
20
-10.027292177318845
42
-0.41421356237311036
10
26.699653583172356
20
-10.620321823111919
10
23.996801601970191
20
-23.336240632529908
42
-0.4142135623731012
0
LWPOLYLINE
5
197
100
AcDbEntity
8
0
100
AcDbPolyline
90
8
70
1
43
0.0
10
97.496215387500001
20
-101.83083439178901
42
0.41421356237313667
10
96.996215387500015
20
-101.33083439178903
10
83.996215387500101
20
-101.33083439178901
42
0.41421356237310542
10
83.496215387500001
20
-101.83083439178901
10
83.496215387500015
20
-114.830834391789
42
0.41421356237312623
10
83.996215387500001
20
-115.33083439178901
10
96.996215387500015
20
-115.33083439178901
42
0.41421356237313667
10
97.496215387500001
20
-114.830834391789
0
LWPOLYLINE
5
198
100
AcDbEntity
8
0
100
AcDbPolyline
90
8
70
1
43
0.0
10
-17.458256827672287
20
-43.412022632036226
42
0.414213562373203
10
-16.865227181913692
20
-43.797140587020955
10
-4.1493083722528619
20
-41.094288606961406
42
0.41421356237311741
10
-3.76419041726811
20
-40.501258961202915
10
-6.4670423973276705
20
-27.785340151542009
42
0.41421356237318835
10
-7.0600720430861212
20
-27.400222196557415
10
-19.775990852747107
20
-30.103074176616886
42
0.41421356237304513
10
-20.1611088077318
20
-30.69610382237531
0
LWPOLYLINE
5
199
100
AcDbEntity
8
0
100
AcDbPolyline
90
8
70
1
43
0.0
10
59.739925818822897
20
-75.561658196116809
10
72.455844628240982
20
-78.264510177318897
42
-0.41421356237303752
10
72.840962583172328
20
-78.857539823111921
10
70.138110601970268
20
-91.57345863252992
42
-0.4142135623730841
10
69.545080956177202
20
-91.958576587461351
10
56.829162146759103
20
-89.255724606259179
42
-0.41421356237311752
10
56.444044191827707
20
-88.662694960466197
10
59.146896173029802
20
-75.946776151048084
42
-0.41421356237304535
0
LWPOLYLINE
5
200
100
AcDbEntity
8
0
100
AcDbPolyline
90
8
70
1
43
0.0
10
110.07996538749998
20
-61.590835391789014
42
0.41421356237309503
10
109.57996538750001
20
-61.090835391789042
10
96.57996538750011
20
-61.090835391789106
42
0.4142135623730534
10
96.079965387500096
20
-61.590835391789014
10
96.07996538750001
20
-74.590835391789014
42
0.41421356237313667
10
96.57996538750011
20
-75.090835391789014
10
109.57996538750001
20
-75.090835391789028
42
0.4142135623730534
10
110.0799653875
20
-74.590835391789014
0
LWPOLYLINE
5
201
100
AcDbEntity
8
0
100
AcDbPolyline
90
8
70
1
43
0.0
10
-92.103784612500007
20
-94.700835391789099
42
0.41421356237311585
10
-91.603784612500107
20
-95.200835391789212
10
-78.603784612500107
20
-95.200835391789283
42
0.41421356237324591
10
-78.103784612500107
20
-94.700835391789298
10
-78.103784612500277
20
-81.700835391789212
42
0.41421356237306384
10
-78.603784612500107
20
-81.200835391789198
10
-91.603784612499894
20
-81.20083539178907
42
0.41421356237315748
10
-92.103784612500007
20
-81.700835391789099
0
LWPOLYLINE
5
202
100
AcDbEntity
8
0
100
AcDbPolyline
90
8
70
1
43
0.0
10
-56.7904443722529
20
-91.236442606961234
42
0.41421356237316337
10
-56.405326417268206
20
-90.643412961202785
10
-59.10817839732772
20
-77.927494151541893
42
0.41421356237306928
10
-59.701208043086204
20
-77.5423761965572
10
-72.417126852747316
20
-80.245228176616791
42
0.414213562373143
10
-72.802244807731896
20
-80.838257822375311
10
-70.099392827672474
20
-93.554176632036302
42
0.4142135623730947
10
-69.506363181913997
20
-93.93929458702101
0
LWPOLYLINE
5
203
100
AcDbEntity
8
0
100
AcDbPolyline
90
8
70
1
43
0.0
10
19.176620191827652
20
-80.741258960466183
42
0.41421356237310725
10
19.56173814675909
20
-81.334288606259236
10
32.277656956177111
20
-84.037140587461352
42
0.41421356237307183
10
32.870686601970206
20
-83.652022632530034
10
35.573538583172237
20
-70.936103823111921
42
0.41421356237317641
10
35.188420628240905
20
-70.343074177318812
10
22.472501818822899
20
-67.64022219611681
42
0.41421356237306795
10
21.8794721730298
20
-68.025340151048098
0
LWPOLYLINE
5
204
100
AcDbEntity
8
0
100
AcDbPolyline
90
8
70
1
43
0.0
10
120.5862153875
20
-93.640835391788997
42
0.41421356237309503
10
121.0862153875
20
-94.140835391789011
10
134.0862153875
20
-94.140835391789011
42
0.41421356237309503
10
134.58621538750003
20
-93.640835391788997
10
134.5862153875
20
-80.640835391789011
42
0.41421356237312623
10
134.0862153875
20
-80.140835391789111
10
121.0862153875
20
-80.140835391789111
42
0.41421356237313667
10
120.58621538750002
20
-80.640835391789096
0
LWPOLYLINE
5
205
100
AcDbEntity
8
0
100
AcDbPolyline
90
8
70
1
43
0.0
10
50.211368956177097
20
-68.367858587461214
10
37.495450146758998
20
-65.665006606259141
42
-0.41421356237308871
10
37.110332191827588
20
-65.071976960466117
10
39.813184173029761
20
-52.356058151048039
42
-0.41421356237303431
10
40.406213818822792
20
-51.970940196116658
10
53.122132628240905
20
-54.673792177318703
42
-0.41421356237321028
10
53.507250583172379
20
-55.266821823111833
10
50.804398601970206
20
-67.982740632529911
42
-0.41421356237307361
0
LWPOLYLINE
5
206
100
AcDbEntity
8
0
100
AcDbPolyline
90
8
70
1
43
0.0
10
143.54127474765102
20
-55.53708898751281
42
0.41421356237313145
10
144.04127474765102
20
-55.037088987512817
10
144.04127474765102
20
-40.037088987512711
42
0.41421356237308982
10
143.54127474765102
20
-39.537088987512718
10
137.53737986561799
20
-39.537088987512796
42
0.41193380634345017
10
137.04127474765099
20
-40.037073817176605
10
137.04127474765099
20
-55.037088987512817
42
0.41421356237309503
10
137.54127474765099
20
-55.537088987512917
0
LWPOLYLINE
5
207
100
AcDbEntity
8
0
100
AcDbPolyline
90
8
70
1
43
0.0
10
102.63621538750002
20
-99.190835391789108
10
115.6362153875
20
-99.190835391788994
42
-0.41421356237312623
10
116.13621538749999
20
-99.690835391788994
10
116.13621538750002
20
-112.69083539178901
42
-0.41421356237307422
10
115.6362153875
20
-113.19083539178902
10
102.63621538750002
20
-113.19083539178899
42
-0.41421356237313667
10
102.13621538750003
20
-112.69083539178901
10
102.13621538750002
20
-99.690835391789108
42
-0.41421356237313667
0
LWPOLYLINE
5
208
100
AcDbEntity
8
0
100
AcDbPolyline
90
8
70
1
43
0.0
10
91.219965387499997
20
-42.040835391789017
10
104.21996538750001
20
-42.040835391789024
42
-0.4142135623730846
10
104.71996538749998
20
-42.54083539178901
10
104.7199653875
20
-55.540835391789017
42
-0.41421356237311585
10
104.21996538750001
20
-56.04083539178901
10
91.219965387499997
20
-56.04083539178901
42
-0.41421356237311585
10
90.719965387500011
20
-55.540835391789017
10
90.719965387499997
20
-42.54083539178901
42
-0.41421356237311585
0
LWPOLYLINE
5
209
100
AcDbEntity
8
0
100
AcDbPolyline
90
8
70
1
43
0.0
10
41.106213818822923
20
-71.60094019611671
42
0.4142135623730307
10
40.513184173029813
20
-71.986058151048113
10
37.810332191827712
20
-84.701976960466197
42
0.41421356237314211
10
38.1954501467591
20
-85.295006606259307
10
50.911368956177085
20
-87.997858587461366
42
0.41421356237316226
10
51.504398601970308
20
-87.612740632530006
10
54.207250583172282
20
-74.896821823111907
42
0.41421356237313284
10
53.822132628240908
20
-74.303792177318812
0
LWPOLYLINE
5
210
100
AcDbEntity
8
0
100
AcDbPolyline
90
8
70
1
43
0.0
10
22.293538583172378
20
-87.586103823111898
42
0.41421356237313844
10
21.908420628241004
20
-86.993074177318761
10
9.1925018188229206
20
-84.29022219611673
42
0.41421356237309326
10
8.5994721730298096
20
-84.675340151048104
10
5.896620191827683
20
-97.391258960466217
42
0.41421356237310519
10
6.2817381467591105
20
-97.984288606259312
10
18.997656956177153
20
-100.68714058746124
42
0.4142135623729899
10
19.590686601970301
20
-100.30202263253001
0
LWPOLYLINE
5
211
100
AcDbEntity
8
0
100
AcDbPolyline
90
8
70
1
43
0.0
10
157.70621438750001
20
-115.33083439178901
42
0.41421356237307422
10
158.20621438750004
20
-114.830834391789
10
158.20621438750004
20
-101.83083439178901
42
0.41421356237309503
10
157.70621438750001
20
-101.33083439178901
10
144.70621438750001
20
-101.33083439178901
42
0.41421356237309503
10
144.20621438750001
20
-101.83083439178901
10
144.20621438750001
20
-114.830834391789
42
0.41421356237307422
10
144.70621438750001
20
-115.33083439178901
0
LWPOLYLINE
5
212
100
AcDbEntity
8
0
100
AcDbPolyline
90
8
70
1
43
0.0
10
-150.23003561249999
20
-61.090834391789116
42
0.41421356237315748
10
-150.73003561249999
20
-61.590834391789215
10
-150.7300356124999
20
-74.590834391789016
42
0.41421356237308982
10
-150.23003561249999
20
-75.090834391788917
10
-137.23003561249999
20
-75.090834391788945
42
0.41421356237310025
10
-136.73003561249999
20
-74.590834391789016
10
-136.73003561250002
20
-61.590834391789009
42
0.41421356237315227
10
-137.23003561249999
20
-61.090834391789016
0
LWPOLYLINE
5
213
100
AcDbEntity
8
0
100
AcDbPolyline
90
8
70
1
43
0.0
10
-77.777125852746934
20
-100.85522717661738
42
0.41421356237261642
10
-78.162243807731926
20
-101.44825682237507
10
-75.459391827672164
20
-114.16417563203601
42
0.41421356237295442
10
-74.8663621819138
20
-114.54929358702101
10
-62.150443372252788
20
-111.84644160696155
42
0.41421356237310847
10
-61.765325417268301
20
-111.25341196120301
10
-64.468177397327892
20
-98.537493151542108
42
0.41421356237302709
10
-65.061207043086299
20
-98.152375196557401
0
LWPOLYLINE
5
214
100
AcDbEntity
8
0
100
AcDbPolyline
90
20
70
1
43
0.0
10
-154.1937846125
20
-112.690834391789
10
-154.19378461249997
20
-99.690834391789011
42
-0.41421356237315748
10
-153.6937846125
20
-99.19083439178894
10
-153.074676872563
20
-99.190834391788997
10
-153.074676872563
20
-97.190918575690318
42
-0.41421356237315748
10
-152.57467687256303
20
-96.690918575690219
10
-146.574613709304
20
-96.690918575690233
42
-0.41417656267652087
10
-146.07467687256303
20
-97.190918571700621
10
-146.074676872563
20
-99.190834391788997
10
-129.26289235243701
20
-99.190834391788997
10
-129.26289235243698
20
-97.190918571700621
42
-0.41417656267658332
10
-128.76295551569601
20
-96.690918575690134
10
-122.76289235243702
20
-96.690918575690148
42
-0.41421356237297013
10
-122.26289235243705
20
-97.190918575689906
10
-122.26289235243701
20
-99.190834391788997
10
-121.64378461250001
20
-99.190834391789039
42
-0.41421356237309503
10
-121.14378461250004
20
-99.690834391789011
10
-121.14378461250004
20
-112.690834391789
42
-0.41421356237312623
10
-121.64378461250001
20
-113.19083439178898
10
-153.6937846125
20
-113.19083439178898
42
-0.41421356237309503
0
LWPOLYLINE
5
215
100
AcDbEntity
8
0
100
AcDbPolyline
90
8
70
1
43
0.0
10
74.898792956177061
20
-112.56929358746123
42
0.41421356237308488
10
75.491822601970242
20
-112.18417563252999
10
78.194674583172315
20
-99.468256823111915
42
0.41421356237309287
10
77.809556628240998
20
-98.87522717731882
10
65.093637818822913
20
-96.172375196116761
42
0.41421356237302709
10
64.500608173029804
20
-96.557493151048121
10
61.797756191827744
20
-109.27341196046603
42
0.41421356237313095
10
62.182874146759097
20
-109.866441606259
0
LWPOLYLINE
5
216
100
AcDbEntity
8
0
100
AcDbPolyline
90
8
70
1
43
0.0
10
-0.88930837225293002
20
-79.354288606961418
10
-13.605227181913818
20
-82.057140587020726
42
-0.41421356237312684
10
-14.19825682767245
20
-81.672022632036217
10
-16.901108807731976
20
-68.956103822375326
42
-0.4142135623730846
10
-16.515990852747318
20
-68.363074176616848
10
-3.8000720430864625
20
-65.660222196557342
42
-0.41421356237317253
10
-3.2070423973278706
20
-66.045340151542021
10
-0.50419041726822778
20
-78.761258961202913
42
-0.41421356237310719
0
LWPOLYLINE
5
217
100
AcDbEntity
8
0
100
AcDbPolyline
90
8
70
1
43
0.0
10
77.133637818822905
20
-19.292375196116708
10
89.849556628240904
20
-21.995227177318704
42
-0.41421356237315632
10
90.234674583172392
20
-22.588256823111905
10
87.531822601970291
20
-35.304175632529905
42
-0.41421356237310336
10
86.938792956177195
20
-35.689293587461194
10
74.222874146759196
20
-32.98644160625917
42
-0.41421356237322066
10
73.83775619182768
20
-32.393411960466004
10
76.540608173029796
20
-19.677493151048008
42
-0.41421356237310469
0
LWPOLYLINE
5
218
100
AcDbEntity
8
0
100
AcDbPolyline
90
8
70
1
43
0.0
10
110.7737153875
20
-80.640835391789011
42
0.41421356237309503
10
110.27371538750002
20
-80.140835391789011
10
97.273715387500005
20
-80.140835391789011
42
0.41421356237313667
10
96.773715387500104
20
-80.640835391789096
10
96.773715387500019
20
-93.640835391788997
42
0.41421356237315748
10
97.273715387500005
20
-94.140835391789011
10
110.27371538750002
20
-94.140835391789096
42
0.41421356237312623
10
110.7737153875
20
-93.640835391789096
0
LWPOLYLINE
5
219
100
AcDbEntity
8
0
100
AcDbPolyline
90
13
70
1
43
0.0
10
-151.53881859319597
20
-40.042852762478617
42
0.41408809591527584
10
-152.038604399061
20
-39.542852808357694
10
-158.038818593196
20
-39.542852808358084
42
0.41421356237233542
10
-158.538818593196
20
-40.042852808357807
10
-158.538818593195
20
-42.040835391789109
10
-166.30253561250001
20
-42.040835391789358
42
0.41421356237316787
10
-166.80253561250001
20
-42.540835391789415
10
-166.80253561249998
20
-55.54083539178891
42
0.41421356237310025
10
-166.30253561250001
20
-56.040835391788917
10
-153.30253561250001
20
-56.040835391789003
42
0.41303227706755918
10
-152.80253968248601
20
-55.542852808357814
10
-152.038818593195
20
-55.542852808357722
42
0.41421356237310542
10
-151.538818593195
20
-55.042852808357708
0
LWPOLYLINE
5
220
100
AcDbEntity
8
0
100
AcDbPolyline
90
8
70
1
43
0.0
10
122.2737153875
20
-74.590835391789014
10
122.27371538749999
20
-61.590835391789014
42
-0.41421356237303258
10
122.77371538750002
20
-61.090835391789099
10
140.53621538750002
20
-61.090835391789042
42
-0.41421356237309503
10
141.03621538749996
20
-61.590835391789014
10
141.03621538750002
20
-74.590835391789014
42
-0.41421356237308982
10
140.53621538750002
20
-75.090835391789014
10
122.77371538750002
20
-75.090835391789113
42
-0.41421356237316787
0
LWPOLYLINE
5
221
100
AcDbEntity
8
0
100
AcDbPolyline
90
8
70
1
43
0.0
10
46.459925818822903
20
-92.211658196116787
42
0.41421356237312157
10
45.866896173029772
20
-92.596776151048132
10
43.164044191827728
20
-105.31269496046602
42
0.41421356237321372
10
43.549162146759102
20
-105.905724606259
10
56.265080956177059
20
-108.60857658746122
42
0.4142135623730645
10
56.85811060197021
20
-108.22345863253
10
59.56096258317227
20
-95.507539823111912
42
0.4142135623729965
10
59.175844628241009
20
-94.914510177318817
0
LWPOLYLINE
5
222
100
AcDbEntity
8
0
100
AcDbPolyline
90
8
70
1
43
0.0
10
66.790962583172316
20
-38.617539823111912
42
0.41421356237315571
10
66.405844628240914
20
-38.024510177318788
10
53.689925818822914
20
-35.321658196116672
42
0.41421356237315637
10
53.096896173029798
20
-35.706776151048118
10
50.394044191827646
20
-48.422694960466202
42
0.41421356237309936
10
50.779162146759099
20
-49.015724606259312
10
63.495080956177212
20
-51.718576587461285
42
0.41421356237301621
10
64.088110601970214
20
-51.333458632529911
0
LWPOLYLINE
5
223
100
AcDbEntity
8
0
100
AcDbPolyline
90
8
70
1
43
0.0
10
-37.759391827672232
20
-28.244176632036222
42
0.41421356237315632
10
-37.166362181913598
20
-28.629294587020926
10
-24.450443372252799
20
-25.926442606961409
42
0.41421356237303597
10
-24.065325417268202
20
-25.33341296120291
10
-26.768177397327829
20
-12.617494151542012
42
0.41421356237317014
10
-27.361207043086303
20
-12.232376196557507
10
-40.077125852747201
20
-14.935228176617006
42
0.41421356237299845
10
-40.462243807731603
20
-15.528257822375409
0
LWPOLYLINE
5
224
100
AcDbEntity
8
0
100
AcDbPolyline
90
14
70
1
43
0.0
10
-127.72875263180401
20
-42.040834391789204
10
-127.1087856125
20
-42.040834391789225
42
-0.41421356237304302
10
-126.60878561250003
20
-42.540834391789105
10
-126.60878561249994
20
-55.540834391789112
42
-0.41421356237317308
10
-127.10878561250001
20
-56.040834391789247
10
-149.63378561249999
20
-56.040835391789145
42
-0.41421356237318346
10
-150.13378561250005
20
-55.540835391789017
10
-150.13378561249996
20
-42.540835391788917
42
-0.41421356237309503
10
-149.63378561249999
20
-42.040835391788931
10
-134.72875263180501
20
-42.040834391789204
10
-134.72875263180495
20
-40.042852762478518
42
-0.41408809591595214
10
-134.22896682593901
20
-39.542852808357559
10
-128.22875263180501
20
-39.542852808357623
42
-0.4142135623736049
10
-127.72875263180394
20
-40.042852808357608
0
LWPOLYLINE
5
225
100
AcDbEntity
8
0
100
AcDbPolyline
90
8
70
1
43
0.0
10
-59.143414852747107
20
-96.894510176617018
10
-46.427496043086201
20
-94.191658196557384
42
-0.41421356237311141
10
-45.834466397327695
20
-94.576776151542106
10
-43.131614417268132
20
-107.29269496120301
42
-0.41421356237317136
10
-43.516732372252783
20
-107.8857246069616
10
-56.232651181913795
20
-110.58857658702058
42
-0.41421356237305518
10
-56.825680827672251
20
-110.20345863203602
10
-59.528532807731693
20
-97.487539822375311
42
-0.41421356237300933
0
LWPOLYLINE
5
226
100
AcDbEntity
8
0
100
AcDbPolyline
90
8
70
1
43
0.0
10
121.67621538750001
20
-55.540835391789017
42
0.41421356237308982
10
122.17621538749998
20
-56.040835391789017
10
135.17621538750001
20
-56.040835391788811
42
0.41421356237307422
10
135.67621538750001
20
-55.540835391788804
10
135.67621538750001
20
-42.540835391788917
42
0.41421356237312101
10
135.17621538750001
20
-42.040835391788917
10
122.17621538750001
20
-42.040835391788953
42
0.4142135623730846
10
121.67621538749999
20
-42.54083539178901
0
LWPOLYLINE
5
227
100
AcDbEntity
8
0
100
AcDbPolyline
90
8
70
1
43
0.0
10
-96.963784612499907
20
-101.33083439178888
42
0.41421356237307422
10
-97.463784612500035
20
-101.83083439178901
10
-97.463784612500092
20
-114.830834391789
42
0.41421356237301177
10
-96.96378461250012
20
-115.33083439178901
10
-83.963784612500106
20
-115.33083439178903
42
0.41421356237303258
10
-83.463784612500106
20
-114.830834391789
10
-83.463784612500035
20
-101.83083439178901
42
0.41421356237309503
10
-83.963784612500007
20
-101.33083439178901
0
LWPOLYLINE
5
228
100
AcDbEntity
8
0
100
AcDbPolyline
90
8
70
1
43
0.0
10
-115.5937846125
20
-99.190834391789252
42
0.41421356237313667
10
-116.09378461249976
20
-99.690834391789011
10
-116.09378461250016
20
-112.690834391789
42
0.41421356237309503
10
-115.5937846125
20
-113.190834391789
10
-102.59378461250002
20
-113.1908343917891
42
0.41421356237311585
10
-102.0937846125
20
-112.690834391789
10
-102.09378461250012
20
-99.690834391789195
42
0.41421356237315748
10
-102.59378461250002
20
-99.190834391789195
0
LWPOLYLINE
5
229
100
AcDbEntity
8
0
100
AcDbPolyline
90
8
70
1
43
0.0
10
-28.143020372252913
20
-65.665006606961242
42
0.41421356237303891
10
-27.757902417268166
20
-65.071976961202807
10
-30.460754397327765
20
-52.356058151541816
42
0.41421356237315227
10
-31.053784043086203
20
-51.970940196557116
10
-43.769702852747194
20
-54.673792176616736
42
0.4142135623730307
10
-44.154820807731802
20
-55.266821822375213
10
-41.451968827672296
20
-67.982740632036212
42
0.41421356237317136
10
-40.858939181913804
20
-68.36785858702082
0
LWPOLYLINE
5
230
100
AcDbEntity
8
0
100
AcDbPolyline
90
8
70
1
43
0.0
10
-45.444976625690899
20
-32.432791472735516
10
-48.563651987298172
20
-17.760577461586905
42
-0.41421356237303997
10
-48.1785340323136
20
-17.16754781582846
10
-42.30964842785469
20
-15.920077671185648
42
-0.41421356237322282
10
-41.716618782096106
20
-16.305195626170406
10
-38.597943320728859
20
-30.977410106652098
42
-0.41461938915536745
10
-38.983738928549585
20
-31.570583301428172
10
-44.851946979932187
20
-32.81790942772033
42
-0.41421356237304335
0
LWPOLYLINE
5
231
100
AcDbEntity
8
0
100
AcDbPolyline
90
8
70
1
43
0.0
10
-8.5670423973276595
20
-86.655340151541921
10
-5.8641904172681496
20
-99.371258961202798
42
-0.41421356237318629
10
-6.2493083722528482
20
-99.964288606961361
10
-18.965227181913882
20
-102.66714058702063
42
-0.41421356237296764
10
-19.558256827672292
20
-102.282022632036
10
-22.261108807731716
20
-89.566103822375169
42
-0.41421356237304136
10
-21.875990852747101
20
-88.97307417661672
10
-9.1600720430861848
20
-86.270222196557171
42
-0.41421356237310902
0
LWPOLYLINE
5
232
100
AcDbEntity
8
0
100
AcDbPolyline
90
8
70
1
43
0.0
10
-19.523020372252802
20
-83.315006606961305
10
-32.238939181913814
20
-86.017858587020839
42
-0.41421356237309204
10
-32.831968827672235
20
-85.632740632036189
10
-35.534820807731805
20
-72.916821822375312
42
-0.41421356237320484
10
-35.149702852747112
20
-72.323792176616777
10
-22.433784043086192
20
-69.620940196557328
42
-0.41421356237308471
10
-21.840754397327814
20
-70.006058151541907
10
-19.137902417268073
20
-82.72197696120287
42
-0.41421356237307938
0
LWPOLYLINE
5
233
100
AcDbEntity
8
0
100
AcDbPolyline
90
8
70
1
43
0.0
10
-81.037126852747406
20
-62.595227176616774
42
0.41421356237303292
10
-81.422244807731971
20
-63.188256822375223
10
-78.71939282767238
20
-75.9041756320361
42
0.41421356237302775
10
-78.126363181914002
20
-76.289293587020808
10
-65.410444372253011
20
-73.586441606961287
42
0.4142135623730307
10
-65.025326417268502
20
-72.99341196120271
10
-67.728178397327866
20
-60.277493151541826
42
0.41421356237324186
10
-68.3212080430865
20
-59.892375196557211
0
LWPOLYLINE
5
234
100
AcDbEntity
8
0
100
AcDbPolyline
90
8
70
1
43
0.0
10
-119.27378561250002
20
-61.090834391789016
10
-106.27378561250001
20
-61.090834391789031
42
-0.41421356237310025
10
-105.77378561250003
20
-61.590834391789009
10
-105.77378561250003
20
-74.590834391789016
42
-0.41421356237315227
10
-106.27378561250001
20
-75.090834391789087
10
-119.27378561250002
20
-75.09083439178896
42
-0.4142135623730534
10
-119.77378561250006
20
-74.590834391789016
10
-119.77378561250003
20
-61.590834391789009
42
-0.41421356237311585
0
LWPOLYLINE
5
235
100
AcDbEntity
8
0
100
AcDbPolyline
90
8
70
1
43
0.0
10
-60.050443372252914
20
-52.976442606961285
42
0.41421356237316442
10
-59.665325417268264
20
-52.383412961202708
10
-62.368177397327919
20
-39.667494151541916
42
0.41421356237322388
10
-62.961207043086503
20
-39.282376196557209
10
-75.677125852747182
20
-41.985228176616864
42
0.41421356237291551
10
-76.062243807731818
20
-42.578257822375313
10
-73.359391827672184
20
-55.294176632036212
42
0.41421356237306745
10
-72.76636218191382
20
-55.679294587020813
0
LWPOLYLINE
5
236
100
AcDbEntity
8
0
100
AcDbPolyline
90
8
70
1
43
0.0
10
-97.233784612500216
20
-94.140835391789096
42
0.41421356237304302
10
-96.733784612500131
20
-93.640835391789096
10
-96.733784612500315
20
-80.640835391789011
42
0.41421356237310542
10
-97.233784612500102
20
-80.140835391789196
10
-110.23378461250002
20
-80.140835391789068
42
0.41421356237306384
10
-110.73378461250002
20
-80.640835391789011
10
-110.73378461249999
20
-93.640835391789096
42
0.41421356237309503
10
-110.23378461250002
20
-94.140835391789096
0
LWPOLYLINE
5
237
100
AcDbEntity
8
0
100
AcDbPolyline
90
8
70
1
43
0.0
10
-60.085680827672199
20
-71.943458632036211
10
-62.788532807731634
20
-59.227539822375299
42
-0.41421356237298029
10
-62.403414852747005
20
-58.634510176616729
10
-49.687496043086398
20
-55.931658196557173
42
-0.41421356237307116
10
-49.094466397327963
20
-56.316776151541809
10
-46.391614417268478
20
-69.032694961202722
42
-0.41421356237321905
10
-46.776732372253008
20
-69.625724606961285
10
-59.492651181913828
20
-72.328576587020748
42
-0.41421356237303331
0
LWPOLYLINE
5
238
100
AcDbEntity
8
0
100
AcDbPolyline
90
8
70
1
43
0.0
10
-24.921121808155185
20
-12.224032241211468
42
0.41421356237316959
10
-25.30623976314001
20
-12.817061886970009
10
-22.187564301773008
20
-27.489276367451719
42
0.41461938915550989
10
-21.5938572026988
20
-27.874249834749811
10
-15.725649151315405
20
-26.626923708460385
42
0.41421356237303431
10
-15.340531196330902
20
-26.033894062701812
10
-18.459206557937932
20
-11.361680051553291
42
0.41421356237308005
10
-19.052236203696602
20
-10.976562096568808
0
LWPOLYLINE
5
239
100
AcDbEntity
8
0
100
AcDbPolyline
90
8
70
1
43
0.0
10
-81.363785612500052
20
-42.540834391789005
42
0.41421356237314705
10
-81.863785612500294
20
-42.040834391789076
10
-94.863785612499996
20
-42.040834391789133
42
0.41421356237304818
10
-95.36378561250001
20
-42.540834391789105
10
-95.363785612500038
20
-55.540834391789211
42
0.41421356237301699
10
-94.863785612500095
20
-56.040834391789211
10
-81.86378561250001
20
-56.040834391789154
42
0.41421356237307422
10
-81.363785612500195
20
-55.540834391789112
0
LWPOLYLINE
5
240
100
AcDbEntity
8
0
100
AcDbPolyline
90
8
70
1
43
0.0
10
166.4362133875
20
-63.730835391789007
10
166.43621338750006
20
-76.730835391789014
42
-0.41421356237307422
10
165.9362133875
20
-77.230835391789014
10
152.9362133875
20
-77.230835391789
42
-0.41421356237311585
10
152.4362133875
20
-76.730835391789014
10
152.4362133875
20
-63.730835391789007
42
-0.41421356237311585
10
152.9362133875
20
-63.230835391789022
10
165.9362133875
20
-63.230835391788972
42
-0.41421356237311063
0
LWPOLYLINE
5
241
100
AcDbEntity
8
0
100
AcDbPolyline
90
8
70
1
43
0.0
10
13.126620191827701
20
-40.501258960466117
10
15.829472173029789
20
-27.785340151048107
42
-0.41421356237309626
10
16.422501818822802
20
-27.400222196116694
10
29.138420628240901
20
-30.10307417731882
42
-0.41421356237322116
10
29.523538583172353
20
-30.696103823111926
10
26.820686601970284
20
-43.412022632529897
42
-0.4142135623731697
10
26.227656956177086
20
-43.797140587461371
10
13.511738146759029
20
-41.094288606259084
42
-0.41421356237304441
0
LWPOLYLINE
5
242
100
AcDbEntity
8
0
100
AcDbPolyline
90
8
70
1
43
0.0
10
134.6862153875
20
-113.19083539178899
10
121.68621538750001
20
-113.19083539178902
42
-0.41421356237312623
10
121.18621538750003
20
-112.69083539178901
10
121.1862153875
20
-99.690835391788994
42
-0.41421356237307422
10
121.68621538750001
20
-99.190835391788994
10
134.6862153875
20
-99.190835391788994
42
-0.41421356237309503
10
135.1862153875
20
-99.690835391788994
10
135.1862153875
20
-112.69083539178901
42
-0.41421356237309503
0
LWPOLYLINE
5
243
100
AcDbEntity
8
0
100
AcDbPolyline
90
8
70
1
43
0.0
10
-36.091968827672204
20
-47.372740632036212
42
0.41421356237317208
10
-35.498939181913684
20
-47.757858587020991
10
-22.783020372252679
20
-45.055006606961314
42
0.41421356237316598
10
-22.397902417268
20
-44.461976961202808
10
-25.100754397327631
20
-31.746058151541913
42
0.41421356237309126
10
-25.693784043086204
20
-31.36094019655711
10
-38.409702852747102
20
-34.063792176616616
42
0.41421356237296503
10
-38.79482080773171
20
-34.656821822375107
0
LWPOLYLINE
5
244
100
AcDbEntity
8
0
100
AcDbPolyline
90
8
70
1
43
0.0
10
-64.860443372252917
20
-32.986441606961407
42
0.41421356237316703
10
-64.475325417268323
20
-32.393411961202915
10
-67.178177397327914
20
-19.67749315154191
42
0.41421356237310086
10
-67.771207043086207
20
-19.292375196557209
10
-80.487125852747198
20
-21.995227176616808
42
0.41421356237303508
10
-80.872243807731806
20
-22.588256822375307
10
-78.169391827672158
20
-35.304175632036298
42
0.41421356237305257
10
-77.576362181913694
20
-35.689293587020913
0
LWPOLYLINE
5
245
100
AcDbEntity
8
0
100
AcDbPolyline
90
8
70
1
43
0.0
10
-134.824325295135
20
-61.591999327143711
42
0.4142135623730222
10
-135.32432529513514
20
-62.091999327143704
10
-135.32432529513503
20
-77.09199933076431
42
0.41424881002811487
10
-134.82426512437399
20
-77.591999327143711
10
-128.824325295135
20
-77.591999327143327
42
0.41421356237300139
10
-128.324325295135
20
-77.091999327143412
10
-128.32432529513505
20
-62.091999327143704
42
0.41421356237310025
10
-128.824325295135
20
-61.591999327143711
0
LWPOLYLINE
5
246
100
AcDbEntity
8
0
100
AcDbPolyline
90
8
70
1
43
0.0
10
-11.827042397327869
20
-48.395340151542001
42
0.41421356237312917
10
-12.420072043086384
20
-48.010222196557393
10
-25.135990852747096
20
-50.713074176616843
42
0.41421356237302764
10
-25.521108807731704
20
-51.306103822375313
10
-22.818256827672375
20
-64.022022632036226
42
0.41421356237313539
10
-22.225227181913802
20
-64.407140587020919
10
-9.5093083722528586
20
-61.704288606961327
42
0.41421356237299928
10
-9.1241904172681707
20
-61.111258961202914
0
LWPOLYLINE
5
247
100
AcDbEntity
8
0
100
AcDbPolyline
90
8
70
1
43
0.0
10
31.7603321918277
20
-44.46197696046621
10
34.463184173029774
20
-31.746058151048121
42
-0.41421356237310114
10
35.056213818822805
20
-31.360940196116687
10
47.772132628240904
20
-34.063792177318824
42
-0.41421356237309614
10
48.157250583172399
20
-34.656821823111926
10
45.454398601970205
20
-47.372740632530004
42
-0.41421356237305218
10
44.861368956177195
20
-47.757858587461328
10
32.145450146759032
20
-45.055006606259191
42
-0.41421356237305101
0
LWPOLYLINE
5
248
100
AcDbEntity
8
0
100
AcDbPolyline
90
8
70
1
43
0.0
10
34.873538583172298
20
-51.306103823111904
10
32.17068660197026
20
-64.022022632529897
42
-0.4142135623731566
10
31.577656956177094
20
-64.407140587461356
10
18.861738146759112
20
-61.704288606259261
42
-0.41421356237311069
10
18.476620191827649
20
-61.111258960466202
10
21.179472173029737
20
-48.395340151048117
42
-0.41421356237312085
10
21.772501818822818
20
-48.010222196116658
10
34.488420628240881
20
-50.713074177318909
42
-0.41421356237310492
0
CIRCLE
5
249
100
AcDbEntity
8
0
100
AcDbCircle
10
151.20621438780501
20
-17.2108354056883
30
0
40
1.6000000000000003
210
0
220
0
230
1
0
LWPOLYLINE
5
250
100
AcDbEntity
8
0
100
AcDbPolyline
90
8
70
1
43
0.0
10
128.81996538749999
20
-36.490835391789005
10
128.81996538749999
20
-23.490835391789009
42
-0.41421356237301177
10
129.31996538749999
20
-22.990835391789105
10
142.31996538749999
20
-22.990835391789005
42
-0.41421356237309243
10
142.81996538750002
20
-23.490835391789009
10
142.81996538750002
20
-36.490835391789005
42
-0.41421356237311585
10
142.31996538749999
20
-36.990835391789005
10
129.31996538749999
20
-36.990835391788991
42
-0.41421356237309243
0
ENDSEC
0
SECTION
2
OBJECTS
0
DICTIONARY
5
C
100
AcDbDictionary
3
ACAD_GROUP
350
D
3
ACAD_MLINESTYLE
350
17
0
DICTIONARY
5
D
100
AcDbDictionary
0
DICTIONARY
5
1A
330
C
100
AcDbDictionary
0
DICTIONARY
5
17
100
AcDbDictionary
0
ENDSEC
0
EOF
